<?xml version="1.0" ?>
<!DOCTYPE svg  PUBLIC '-//W3C//DTD SVG 1.1//EN'  'http://www.w3.org/Graphics/SVG/1.1/DTD/svg11.dtd'>
<!-- Uploaded to: SVG Repo, www.svgrepo.com, Transformed by: SVG Repo Mixer Tools -->
<svg fill="#000000" width="800px" height="800px" viewBox="0 0 59 59" id="Capa_1" version="1.1" xml:space="preserve" xmlns="http://www.w3.org/2000/svg" xmlns:xlink="http://www.w3.org/1999/xlink">
<g>
<path d="M59,41V15h-9c-0.553,0-1,0.447-1,1s0.447,1,1,1h7v22H11V17h7c0.553,0,1-0.447,1-1s-0.447-1-1-1h-7V7c0-0.553-0.447-1-1-1   H7.858C7.411,4.28,5.859,3,4,3C1.794,3,0,4.794,0,7s1.794,4,4,4c1.859,0,3.411-1.28,3.858-3H9v7v1v24v1v6c0,0.553,0.447,1,1,1   h7.031C15.806,48.912,15,50.359,15,52c0,2.757,2.243,5,5,5s5-2.243,5-5c0-1.641-0.806-3.088-2.031-4h18.062   C39.806,48.912,39,50.359,39,52c0,2.757,2.243,5,5,5s5-2.243,5-5c0-1.641-0.806-3.088-2.031-4H53c0.553,0,1-0.447,1-1s-0.447-1-1-1   H11v-5H59z M4,9C2.897,9,2,8.103,2,7s0.897-2,2-2c0.737,0,1.375,0.405,1.722,1H5C4.447,6,4,6.447,4,7s0.447,1,1,1h0.722   C5.375,8.595,4.737,9,4,9z M20,55c-1.654,0-3-1.346-3-3s1.346-3,3-3s3,1.346,3,3S21.654,55,20,55z M44,55c-1.654,0-3-1.346-3-3   s1.346-3,3-3s3,1.346,3,3S45.654,55,44,55z"/>
<path d="M34,30c7.72,0,14-6.28,14-14S41.72,2,34,2S20,8.28,20,16S26.28,30,34,30z M34,4c6.617,0,12,5.383,12,12s-5.383,12-12,12   s-12-5.383-12-12S27.383,4,34,4z"/>
<path d="M27.636,22.364c0.195,0.195,0.451,0.293,0.707,0.293s0.512-0.098,0.707-0.293l4.95-4.95l4.95,4.95   c0.195,0.195,0.451,0.293,0.707,0.293s0.512-0.098,0.707-0.293c0.391-0.391,0.391-1.023,0-1.414L35.414,16l4.95-4.95   c0.391-0.391,0.391-1.023,0-1.414s-1.023-0.391-1.414,0L34,14.586l-4.95-4.95c-0.391-0.391-1.023-0.391-1.414,0   s-0.391,1.023,0,1.414l4.95,4.95l-4.95,4.95C27.245,21.341,27.245,21.974,27.636,22.364z"/>
</g>
<g/>
<g/>
<g/>
<g/>
<g/>
<g/>
<g/>
<g/>
<g/>
<g/>
<g/>
<g/>
<g/>
<g/>
<g/>
</svg>